PathFileType	4	(X/Y/Z)	C:\Users\Basilio\Documents\Thesis Gigler\squatting_fais\c3dfiles\054\SLS_back_pre2\markers_experimental.trc
DataRate	CameraRate	NumFrames	NumMarkers	Units	OrigDataRate	OrigDataStartFrame	OrigNumFrames
200.000000	200.000000	4	61	mm	200.000000	767	1535
Frame#	Time	FHD			LBHD			RBHD			C7			T10			CLAV			LSHO			LUUPA			LMUPA			LDUPA			LLEP			LMEP			LRAD			LUL			LRFIN			RSHO			RUPA1			RMUPA			RDUPA			RLEP			RMEP			RRAD			RUL			RUFIN			LASI			RASI			USACR			LSACR			RSACR			LTHI1			LTHI2			LTHI3			LTHI4			LLFC			LMFC			LTIB1			LTIB2			LTIB3			LTIB4			LLMAL			LMMAL			LHEE			LMT1			LMT2			LMT5			RTHI			RTHI2			RTHI3			RTHI4			RLFC			RMFC			RTIB1			RTIB2			RTIB3			RTIB4			RLMAL			RMMAL			RHEE			RMT1			RMT2			RMT5			
		X1	Y1	Z1	X2	Y2	Z2	X3	Y3	Z3	X4	Y4	Z4	X5	Y5	Z5	X6	Y6	Z6	X7	Y7	Z7	X8	Y8	Z8	X9	Y9	Z9	X10	Y10	Z10	X11	Y11	Z11	X12	Y12	Z12	X13	Y13	Z13	X14	Y14	Z14	X15	Y15	Z15	X16	Y16	Z16	X17	Y17	Z17	X18	Y18	Z18	X19	Y19	Z19	X20	Y20	Z20	X21	Y21	Z21	X22	Y22	Z22	X23	Y23	Z23	X24	Y24	Z24	X25	Y25	Z25	X26	Y26	Z26	X27	Y27	Z27	X28	Y28	Z28	X29	Y29	Z29	X30	Y30	Z30	X31	Y31	Z31	X32	Y32	Z32	X33	Y33	Z33	X34	Y34	Z34	X35	Y35	Z35	X36	Y36	Z36	X37	Y37	Z37	X38	Y38	Z38	X39	Y39	Z39	X40	Y40	Z40	X41	Y41	Z41	X42	Y42	Z42	X43	Y43	Z43	X44	Y44	Z44	X45	Y45	Z45	X46	Y46	Z46	X47	Y47	Z47	X48	Y48	Z48	X49	Y49	Z49	X50	Y50	Z50	X51	Y51	Z51	X52	Y52	Z52	X53	Y53	Z53	X54	Y54	Z54	X55	Y55	Z55	X56	Y56	Z56	X57	Y57	Z57	X58	Y58	Z58	X59	Y59	Z59	X60	Y60	Z60	X61	Y61	Z61	

768	3.835	-40.99921417236329	1517.799438476563	-1073.7314453125	-202.6892242431641	1468.20166015625	-1145.85302734375	-221.0734405517579	1467.719116210938	-1006.334716796875	-262.9046630859376	1327.913452148438	-1061.364135742188	-414.0890197753907	1040.738525390625	-1052.1611328125	-140.8893585205078	1232.891845703125	-1072.402465820313	-184.0350189208985	1317.833862304688	-1209.278076171875	-64.51844024658205	1185.537475585938	-1349.381225585938	-24.97460365295411	1212.622192382813	-1336.355712890625	1.427613019943238	1166.924560546875	-1364.323608398438	59.69223403930665	1161.131591796875	-1366.381225585938	52.63126754760744	1093.51953125	-1323.587280273438	314.5110473632813	1148.17431640625	-1279.591186523438	328.6647644042969	1118.8212890625	-1350.196655273438	406.0948181152345	1165.4306640625	-1295.230346679688	-177.8360290527344	1311.760131835938	-928.241882324219	-44.00459289550782	1188.603271484375	-790.6746826171877	-5.718760490417481	1215.862426757813	-801.2744140625002	21.87263298034668	1167.3759765625	-776.2869873046877	67.23337554931642	1157.979858398438	-776.445983886719	61.1838722229004	1100.0732421875	-827.048278808594	325.7333068847657	1202.19140625	-902.9351806640627	331.9165954589844	1181.2197265625	-824.8428955078127	399.4751892089845	1234.372436523438	-896.703063964844	-308.3433227539063	831.202331542969	-1179.833984375	-315.4753723144532	809.3755493164065	-930.850280761719	-454.0356750488282	965.1719970703127	-1050.560913085938	-474.0426330566407	940.9338989257815	-1081.095336914063	-470.332489013672	934.963317871094	-1023.792297363281	-316.2713317871094	645.8341064453126	-1260.176513671875	-240.1295318603516	607.9213256835939	-1249.526123046875	-207.4640350341797	640.6314697265626	-1241.671508789063	-227.2882843017579	550.7933959960939	-1233.262939453125	-141.3047027587891	443.4832763671876	-1189.293212890625	-121.0417861938477	471.0953369140626	-1055.713012695313	-161.3711090087891	301.3197326660157	-1103.79931640625	-224.5259094238282	267.8729248046876	-1157.16552734375	-194.4762878417969	256.8758850097657	-1126.444458007813	-237.6411590576172	202.3533935546876	-1079.33447265625	-354.3095397949219	104.6208572387696	-1105.736938476563	-320.9953308105469	132.1492614746094	-1015.273315429688	-426.5843200683595	100.6547012329102	-1043.224731445313	-216.5279235839844	56.70364379882814	-1019.951477050781	-208.2198944091797	54.1955032348633	-1069.28076171875	-260.3777160644532	37.87415313720704	-1120.286254882813	-446.3071289062501	535.6176757812501	-848.140808105469	-414.6577148437501	476.0720520019532	-845.1670532226565	-381.8159790039063	471.0744628906251	-851.0456542968752	-454.537567138672	403.4501953125001	-861.8867797851565	-481.5907592773439	358.6152038574219	-869.1607666015627	-431.5648193359376	319.9979248046876	-994.969421386719	-565.0591430664064	289.7067260742188	-898.4766235351565	-644.9197387695314	359.0124206542969	-882.254821777344	-648.8466796875001	314.4706115722657	-893.5901489257815	-691.6810302734376	301.3539123535157	-931.3211059570315	-863.541687011719	361.6310729980469	-944.4160156250002	-831.4336547851565	331.2806091308594	-1029.10888671875	-842.498962402344	433.9692382812501	-991.8552856445315	-956.2990722656252	259.6636962890626	-1067.399780273438	-972.0203857421877	248.1960906982422	-1021.69091796875	-985.0461425781252	295.4667663574219	-973.1321411132815	
769	3.84	-40.39274597167969	1516.773193359375	-1073.981689453125	-202.4342041015626	1466.9560546875	-1145.954345703125	-220.453353881836	1466.412109375	-1006.564086914063	-262.4164428710938	1326.693725585938	-1061.509033203125	-413.8211059570314	1039.693969726563	-1052.18798828125	-140.8050842285157	1231.621704101563	-1072.693725585938	-183.810043334961	1316.863403320313	-1209.475341796875	-63.99978256225587	1184.34130859375	-1349.513916015625	-24.7911605834961	1211.408081054688	-1336.339721679688	2.03475046157837	1165.922485351563	-1364.346435546875	60.20449829101564	1159.950073242188	-1366.224609375	53.30380630493165	1092.734619140625	-1323.57958984375	314.8184204101563	1146.972290039063	-1279.914916992188	329.7566833496094	1117.87109375	-1350.372924804688	406.551239013672	1164.565307617188	-1295.30908203125	-177.1646575927735	1310.850830078125	-928.4721679687502	-43.06122589111329	1187.679565429688	-790.9703369140627	-5.22736406326294	1214.922119140625	-801.4227294921877	22.68179321289063	1166.607177734375	-776.388610839844	68.10764312744142	1157.069091796875	-776.7769775390627	61.84900283813478	1099.418334960938	-827.1936035156252	326.4893798828126	1201.431640625	-903.3733520507815	332.6697998046876	1180.476196289063	-825.2076416015627	400.2272949218751	1233.652465820313	-897.2764892578127	-308.3471984863282	830.3676757812502	-1180.065307617188	-315.2504272460938	808.5402832031252	-930.8891601562502	-453.9736938476564	964.110290527344	-1050.489501953125	-473.7261657714845	939.8897094726565	-1080.963745117188	-470.3968505859376	934.135192871094	-1023.593078613281	-316.1394958496094	644.9795532226564	-1260.26611328125	-240.0692749023438	607.2788085937501	-1249.4951171875	-207.5283966064454	640.0737304687501	-1241.617309570313	-227.1073303222657	550.2532348632814	-1233.2021484375	-141.1565399169922	443.1360473632814	-1189.195434570313	-120.7745666503907	470.8268127441407	-1055.758056640625	-161.0738220214844	301.0207519531251	-1103.771362304688	-224.2765502929688	267.7621154785157	-1157.046264648438	-194.2088317871094	256.6480102539063	-1126.409790039063	-237.4342041015626	202.1834259033204	-1079.2392578125	-354.3313598632813	104.6159439086914	-1105.649291992188	-320.9739990234376	132.1192626953125	-1015.224731445313	-426.5596313476564	100.6524047851563	-1043.220703125	-216.4663848876954	56.58251190185548	-1020.022033691406	-208.2125396728516	54.19987106323244	-1069.313842773438	-260.6223754882813	37.89594650268555	-1120.200317382813	-446.1917419433595	534.5213012695314	-848.1120605468752	-414.6407470703126	475.0949707031251	-845.0679321289065	-381.8488159179688	469.9449768066407	-851.0531005859377	-454.528533935547	402.4150390625001	-861.7781982421877	-481.5952148437501	357.5706787109376	-869.0831298828127	-431.4999389648439	319.0500488281251	-994.9243774414065	-564.8049926757814	288.5095520019532	-898.8502197265627	-644.5602416992189	358.0928344726563	-882.0899658203127	-648.4586791992189	313.5773925781251	-893.7690429687502	-691.6049804687501	300.5215148925782	-931.0661621093752	-863.3176879882815	360.8604736328126	-943.982849121094	-831.2530517578127	330.6931457519532	-1028.797119140625	-842.1636962890627	433.340057373047	-991.448181152344	-955.6826171875002	259.1690368652344	-1066.833740234375	-972.1533203125002	247.7329406738282	-1021.34765625	-984.9727783203127	294.8142089843751	-972.6156005859377	
770	3.845	-39.99484634399415	1515.318359375	-1074.158447265625	-201.9719238281251	1465.690673828125	-1146.192016601563	-220.0899505615235	1465.0771484375	-1006.670654296875	-262.0959472656251	1325.57080078125	-1061.660766601563	-413.639862060547	1038.682250976563	-1052.0380859375	-140.0943298339844	1230.3291015625	-1072.798217773438	-183.1354370117188	1315.468627929688	-1209.552368164063	-63.37183761596681	1183.311157226563	-1349.653930664063	-24.21272468566895	1210.4951171875	-1336.51220703125	2.909145832061768	1164.779907226563	-1364.429321289063	60.68018341064455	1159.02099609375	-1366.480102539063	53.60215759277345	1091.783935546875	-1324.773071289063	315.3381652832032	1146.121948242188	-1280.026733398438	330.5433044433594	1116.835327148438	-1350.547729492188	407.5355224609376	1163.667602539063	-1295.49072265625	-176.5595397949219	1309.485229492188	-928.843444824219	-42.40173339843751	1186.718627929688	-791.230407714844	-4.205855369567872	1214.112548828125	-801.9006958007815	23.48547744750977	1165.664306640625	-776.7617187500002	68.72571563720705	1156.4541015625	-777.0743408203127	62.69271850585939	1098.518676757813	-827.4785156250002	327.2373657226563	1200.705688476563	-903.9152832031252	333.2515563964844	1179.817504882813	-825.5838623046877	400.6459350585939	1233.001586914063	-897.5687255859377	-308.6149291992188	829.2132568359377	-1180.060546875	-315.4265747070313	807.3322753906252	-930.724792480469	-453.9559631347657	963.209899902344	-1050.377075195313	-473.8496398925782	939.0383911132815	-1080.902099609375	-470.2417907714845	933.1751098632815	-1023.532348632813	-316.1807556152344	644.1780395507814	-1260.14599609375	-239.9588623046876	606.6311645507814	-1249.458862304688	-207.4595794677735	639.5578613281251	-1241.647583007813	-226.7787628173829	549.7158203125001	-1233.200073242188	-140.656478881836	442.7674560546876	-1189.224975585938	-120.2099990844727	470.5716857910157	-1055.87548828125	-160.8333282470703	300.8058776855469	-1103.735961914063	-223.9926452636719	267.5240478515626	-1157.010498046875	-193.9157104492188	256.4022827148438	-1126.353149414063	-237.3358764648438	202.1026458740235	-1079.178344726563	-354.2098999023438	104.6495361328125	-1105.630004882813	-320.9453125000001	132.1157684326172	-1015.12548828125	-426.5599670410157	100.6642150878907	-1043.161010742188	-216.4848632812501	56.55150985717775	-1020.017944335938	-208.5647430419922	54.20222473144533	-1069.434448242188	-260.6391296386719	37.90234756469727	-1120.194091796875	-445.888641357422	533.5320434570314	-848.0659790039065	-414.5471191406251	473.9949340820314	-845.043640136719	-381.6435546875001	469.0113525390626	-850.9304199218752	-454.2666931152345	401.3410949707032	-861.8675537109377	-481.2608337402345	356.5024414062501	-868.950134277344	-431.2996215820314	318.0674438476563	-995.0163574218752	-564.6973266601564	287.4891662597657	-898.6906738281252	-644.5721435546876	357.2105407714844	-881.8695068359377	-648.7182006835939	312.7547607421876	-893.1972656250002	-691.4391479492189	299.6676330566407	-930.862976074219	-863.1214599609377	360.1205444335938	-943.5335083007815	-831.270202636719	330.0878601074219	-1028.519897460938	-841.7297973632815	432.684783935547	-991.1631469726565	-956.4035644531252	258.8218383789063	-1066.830200195313	-972.2280273437502	247.0874176025391	-1020.824035644531	-984.8884277343752	294.3093566894532	-972.182556152344	
771	3.85	-39.75749206542969	1514.234741210938	-1074.28076171875	-201.6915740966797	1464.590698242188	-1146.223876953125	-219.6455535888672	1463.828002929688	-1006.870483398438	-261.6383056640626	1324.477172851563	-1061.735107421875	-413.5593261718751	1037.799438476563	-1052.08056640625	-140.0515747070313	1229.158203125	-1073.07421875	-182.735824584961	1314.329956054688	-1209.739990234375	-62.81157302856447	1182.108154296875	-1349.744750976563	-24.3286247253418	1209.614624023438	-1336.634155273438	2.926131486892701	1163.832885742188	-1364.565063476563	61.1244239807129	1158.049560546875	-1366.210327148438	54.26493453979494	1090.504028320313	-1324.185424804688	316.0089721679688	1145.427734375	-1280.03076171875	329.8921813964844	1116.185546875	-1350.37158203125	407.6937255859376	1162.870239257813	-1295.588623046875	-176.0102691650391	1308.44873046875	-929.0366210937502	-41.83337783813477	1185.959228515625	-791.4210205078127	-3.721221446990968	1213.2998046875	-802.0872802734377	24.05018615722657	1165.02490234375	-777.1105957031252	69.31620025634767	1155.874877929688	-777.2153930664065	63.35210037231447	1097.732421875	-827.768737792969	328.2312622070313	1199.928466796875	-904.4837036132815	334.3178405761719	1179.200805664063	-826.0796508789065	401.4884033203126	1232.067504882813	-898.0867309570315	-308.6445617675782	828.102966308594	-1180.064208984375	-315.4423522949219	806.3347167968752	-930.8550415039065	-453.866180419922	962.2415771484377	-1050.295532226563	-473.7109985351564	938.098815917969	-1080.840454101563	-470.1531372070314	932.231384277344	-1023.544799804688	-316.2795715332032	643.6011962890626	-1260.132080078125	-239.7841033935547	606.0714721679689	-1249.492065429688	-207.4263610839844	639.0727539062501	-1241.66455078125	-226.6781463623047	549.0897216796876	-1233.106323242188	-140.2462615966797	442.4644165039064	-1189.316650390625	-119.8591842651367	470.3479919433595	-1055.81103515625	-160.6145324707032	300.6368713378907	-1103.638305664063	-223.8581237792969	267.4007263183594	-1156.926635742188	-193.7387237548829	256.2132873535157	-1126.331665039063	-236.988265991211	201.9824523925782	-1079.0986328125	-354.2012329101563	104.6241455078125	-1105.540405273438	-320.8985900878907	132.0528717041016	-1015.035827636719	-426.5962219238282	100.6747970581055	-1043.121337890625	-216.5130004882813	56.49294281005861	-1019.964233398438	-208.188705444336	54.1975440979004	-1069.263061523438	-260.3020019531251	37.9348373413086	-1120.274291992188	-445.9337463378907	532.5356445312501	-848.0596923828127	-414.3854064941407	473.0894775390626	-844.9685058593752	-381.4449462890626	468.0336303710939	-850.9770507812502	-454.1356811523439	400.3507385253907	-861.7954711914065	-481.0138244628907	355.5860290527344	-869.0027465820315	-431.074188232422	316.9965820312501	-994.9719238281252	-564.5392456054689	286.6109008789063	-898.6774902343752	-644.4014892578126	356.1616516113282	-881.7048950195315	-648.3505859375001	311.7675170898438	-893.050720214844	-691.3081054687501	298.7501525878907	-930.738708496094	-862.9758911132815	359.4538269042969	-943.0957031250002	-831.2070312500002	329.4533996582032	-1028.142700195313	-841.549743652344	431.9916381835939	-990.7896728515627	-956.3625488281252	258.2149963378907	-1066.340698242188	-972.3908691406252	246.6903686523438	-1020.166564941406	-984.8709716796877	293.9158935546876	-971.7053833007815	
